<svg width="25" height="24" viewBox="0 0 25 24" fill="none" xmlns="http://www.w3.org/2000/svg">
<g clip-path="url(#clip0_71_1359)">
<path d="M1.25 9.35156C1.25 14.5078 5.44531 18.7031 10.6016 18.7031C12.6406 18.7031 14.5039 18.0469 16.0391 16.9453L21.8047 22.7227C22.0742 22.9922 22.4258 23.1211 22.8008 23.1211C23.5977 23.1211 24.1484 22.5234 24.1484 21.7383C24.1484 21.3633 24.0078 21.0234 23.7617 20.7773L18.0312 15.0117C19.2383 13.4414 19.9531 11.4844 19.9531 9.35156C19.9531 4.19531 15.7578 0 10.6016 0C5.44531 0 1.25 4.19531 1.25 9.35156ZM3.25391 9.35156C3.25391 5.29688 6.54688 2.00391 10.6016 2.00391C14.6562 2.00391 17.9492 5.29688 17.9492 9.35156C17.9492 13.4062 14.6562 16.6992 10.6016 16.6992C6.54688 16.6992 3.25391 13.4062 3.25391 9.35156ZM6.91016 8.60156H14.3398C14.7969 8.60156 15.1484 8.23828 15.1484 7.78125C15.1484 7.32422 14.7969 6.96094 14.3398 6.96094H6.91016C6.44141 6.96094 6.08984 7.32422 6.08984 7.78125C6.08984 8.23828 6.44141 8.60156 6.91016 8.60156ZM6.91016 11.7305H12.3008C12.7578 11.7305 13.1328 11.3789 13.1328 10.9219C13.1328 10.4648 12.7578 10.0898 12.3008 10.0898H6.91016C6.44141 10.0898 6.08984 10.4648 6.08984 10.9219C6.08984 11.3789 6.44141 11.7305 6.91016 11.7305Z" fill="#EA674B"/>
</g>
<defs>
<clipPath id="clip0_71_1359">
<rect width="22.8984" height="23.1211" fill="white" transform="translate(1.25)"/>
</clipPath>
</defs>
</svg>
