<svg width="35" height="26" viewBox="0 0 35 26" fill="none" xmlns="http://www.w3.org/2000/svg">
<g clip-path="url(#clip0_71_367)">
<path d="M3.9375 22.5H6.50391V20.6133H3.96094C3.08203 20.6133 2.63672 20.168 2.63672 19.2891V3.98438C2.63672 3.10547 3.08203 2.64844 3.96094 2.64844H21.1055C21.9727 2.64844 22.4414 3.10547 22.4414 3.98438V21.1641L24.3281 20.4844V3.94922C24.3281 1.86328 23.2266 0.761719 21.1406 0.761719H3.9375C1.83984 0.761719 0.75 1.86328 0.75 3.94922V19.3242C0.75 21.4102 1.83984 22.5 3.9375 22.5ZM12.5625 22.5H23.25V20.6133H12.5625V22.5ZM23.2969 9.11719H27.3281C27.9258 9.11719 28.3477 9.22266 28.8281 9.75L32.5078 13.8867C32.8242 14.2383 32.9883 14.7305 32.9883 15.1523V19.2891C32.9883 20.168 32.5312 20.6133 31.6523 20.6133H29.7656V22.5H31.6875C33.7734 22.5 34.875 21.4102 34.875 19.3242V15.1875C34.875 14.0391 34.6875 13.5 34.043 12.7734L30.0586 8.27344C29.3672 7.5 28.5938 7.23047 27.4453 7.23047H23.2969V9.11719ZM26.5195 15.293H31.6289C31.6289 15.0117 31.5234 14.8594 31.3477 14.6602L27.8555 10.7344C27.5977 10.4648 27.293 10.2891 26.9648 10.2891H25.5117V14.2969C25.5117 14.918 25.8984 15.293 26.5195 15.293ZM9.44531 25.7695C11.6484 25.7695 13.4414 23.9766 13.4414 21.7617C13.4414 19.5586 11.6484 17.7656 9.44531 17.7656C7.23047 17.7656 5.42578 19.5586 5.42578 21.7617C5.42578 23.9766 7.23047 25.7695 9.44531 25.7695ZM9.44531 24.1758C8.10938 24.1758 7.01953 23.0977 7.01953 21.7617C7.01953 20.4375 8.10938 19.3477 9.44531 19.3477C10.7695 19.3477 11.8477 20.4375 11.8477 21.7617C11.8477 23.0977 10.7695 24.1758 9.44531 24.1758ZM26.332 25.7695C28.5469 25.7695 30.3281 23.9766 30.3281 21.7617C30.3281 19.5586 28.5469 17.7656 26.332 17.7656C24.1172 17.7656 22.3242 19.5586 22.3242 21.7617C22.3242 23.9766 24.1172 25.7695 26.332 25.7695ZM26.332 24.1758C25.0078 24.1758 23.918 23.0977 23.918 21.7617C23.918 20.4375 25.0078 19.3477 26.332 19.3477C27.6445 19.3477 28.7344 20.4375 28.7344 21.7617C28.7344 23.0977 27.668 24.1758 26.332 24.1758Z" fill="#EA674B"/>
</g>
<defs>
<clipPath id="clip0_71_367">
<rect width="34.125" height="25.7695" fill="white" transform="translate(0.75)"/>
</clipPath>
</defs>
</svg>
