<svg width="25" height="30" viewBox="0 0 25 30" fill="none" xmlns="http://www.w3.org/2000/svg">
<g clip-path="url(#clip0_71_1969)">
<path d="M6.43359 6.49219H8.32031V3.71484C8.32031 2.55469 8.94141 1.88672 10.1602 1.88672H15.3398V7.89844C15.3398 9.25781 15.9961 9.90234 17.3438 9.90234H22.8281V19.9219C22.8281 21.0938 22.1953 21.75 20.9766 21.75H18.668V23.6367H21.082C23.4961 23.6367 24.7148 22.3945 24.7148 19.957V10.4414C24.7148 9 24.4219 8.08594 23.543 7.18359L17.625 1.17188C16.793 0.316406 15.8086 0 14.5547 0H10.0664C7.65234 0 6.43359 1.24219 6.43359 3.67969V6.49219ZM17.0391 7.61719V2.8125L22.3359 8.20312H17.6133C17.2031 8.20312 17.0391 8.02734 17.0391 7.61719ZM0.75 25.8047C0.75 28.2539 1.95703 29.4844 4.38281 29.4844H15.3984C17.8242 29.4844 19.0312 28.2422 19.0312 25.8047V16.6523C19.0312 15.1523 18.8555 14.4961 17.918 13.5352L11.4609 6.96094C10.5703 6.04688 9.83203 5.84766 8.51953 5.84766H4.38281C1.96875 5.84766 0.75 7.07812 0.75 9.52734V25.8047ZM2.63672 25.7695V9.55078C2.63672 8.40234 3.25781 7.73438 4.47656 7.73438H8.32031V14.5312C8.32031 16.0078 9.07031 16.7461 10.5234 16.7461H17.1445V25.7695C17.1445 26.9414 16.5117 27.5977 15.3047 27.5977H4.46484C3.25781 27.5977 2.63672 26.9414 2.63672 25.7695ZM10.7461 14.9766C10.2773 14.9766 10.0898 14.7891 10.0898 14.3203V8.16797L16.7812 14.9766H10.7461Z" fill="#EA674B"/>
</g>
<defs>
<clipPath id="clip0_71_1969">
<rect width="23.9648" height="29.5195" fill="white" transform="translate(0.75)"/>
</clipPath>
</defs>
</svg>
