<svg width="32" height="26" viewBox="0 0 32 26" fill="none" xmlns="http://www.w3.org/2000/svg">
<g clip-path="url(#clip0_71_215)">
<path d="M9.77734 19.2188H23.4531C23.9102 19.2188 24.3086 18.8438 24.3086 18.3398C24.3086 17.8359 23.9102 17.4609 23.4531 17.4609H9.97656C9.30859 17.4609 8.89844 16.9922 8.79297 16.2773L6.87109 3.23438C6.75391 2.33203 6.42578 1.875 5.23047 1.875H1.11719C0.648438 1.875 0.25 2.28516 0.25 2.75391C0.25 3.23438 0.648438 3.64453 1.11719 3.64453H5.07812L6.95312 16.5117C7.19922 18.1758 8.07812 19.2188 9.77734 19.2188ZM6.61328 6.49219H18.3203C18.2617 5.95312 18.2969 5.25 18.3789 4.72266H6.61328V6.49219ZM7.62109 15.0469H23.4766C24.6953 15.0469 25.4805 14.5312 25.9258 13.5234C24.918 13.5234 23.9688 13.3242 23.0898 12.9375C22.9141 13.1719 22.6914 13.2773 22.3633 13.2773L7.62109 13.2891V15.0469ZM10.7031 24.9141C11.7578 24.9141 12.6016 24.082 12.6016 23.0156C12.6016 21.9609 11.7578 21.1172 10.7031 21.1172C9.63672 21.1172 8.79297 21.9609 8.79297 23.0156C8.79297 24.082 9.63672 24.9141 10.7031 24.9141ZM21.6602 24.9141C22.7266 24.9141 23.5703 24.082 23.5703 23.0156C23.5703 21.9609 22.7266 21.1172 21.6602 21.1172C20.6055 21.1172 19.75 21.9609 19.75 23.0156C19.75 24.082 20.6055 24.9141 21.6602 24.9141ZM25.8555 11.9062C29.0781 11.9062 31.8086 9.21094 31.8086 5.95312C31.8086 2.69531 29.1133 0 25.8555 0C22.5859 0 19.9023 2.69531 19.9023 5.95312C19.9023 9.23438 22.5859 11.9062 25.8555 11.9062ZM25.8555 9.69141C25.4219 9.69141 25.1289 9.39844 25.1289 8.96484V6.67969H22.8438C22.4102 6.67969 22.1289 6.39844 22.1289 5.95312C22.1289 5.51953 22.4102 5.23828 22.8438 5.23828H25.1289V2.95312C25.1289 2.51953 25.4219 2.22656 25.8555 2.22656C26.2891 2.22656 26.5703 2.51953 26.5703 2.95312V5.23828H28.8555C29.2891 5.23828 29.582 5.51953 29.582 5.95312C29.582 6.39844 29.2891 6.67969 28.8555 6.67969H26.5703V8.96484C26.5703 9.39844 26.2891 9.69141 25.8555 9.69141Z" fill="#EA674B"/>
</g>
<defs>
<clipPath id="clip0_71_215">
<rect width="31.5586" height="25.1367" fill="white" transform="translate(0.25)"/>
</clipPath>
</defs>
</svg>
